# xmcd
#
# Track frame offsets:
#	150
#	10320
#	24917
#	38147
#	50737
#	60081
#	70930
#	80191
#	91528
#	101942
#	112930
#	123891
#	134581
#	144837
#	157834
#	169606
#	179342
#	191512
#	201973
#	212597
#	223423
#	232950
#	245139
#	256648
#	267612
#	278562
#	290429
#	300000
#	312092
#
# Disc length: 4291 seconds
#
# Revision: 1
# Processed by: cddbd v1.5.2PL0 Copyright (c) Steve Scherf et al.
# Submitted via: EZCDAudioConverter 7.0.5.1
#
DISCID=9110c11d
DTITLE=Wanda Jackson - Tears Will Be The Chaser For Your Wine [CD2]
DYEAR=1997
DGENRE=Country
TTITLE0=Blues In My Heart
TTITLE1=My Baby's Gone
TTITLE2=Worried Mind
TTITLE3=I'm So Lonesome I Could Cry
TTITLE4=My First Day Without You
TTITLE5=Send Me No Roses
TTITLE6=Have I Grown Used To Missing You
TTITLE7=Take Me Home
TTITLE8=Look Out Heart
TTITLE9=The Box It Came In
TTITLE10=Because It's You
TTITLE11=Long As I Have You
TTITLE12=Along Came You
TTITLE13=I Wonder If She Knows
TTITLE14=I Talk A Pretty Story
TTITLE15=My Heart Gets All The Breaks
TTITLE16=Reckless Love Affair
TTITLE17=Famous Last Words
TTITLE18=Both Side Of The Line
TTITLE19=Tears Will Be The Chaser For Your Wine
TTITLE20=Acting Like My Old Self Again
TTITLE21=You'll Always Have My Love
TTITLE22=I'm The Queen Of My Lonely Little World
TTITLE23=What Have We Done
TTITLE24=What Have We Done and Don Bartlett
TTITLE25=It'll Take Awhile
TTITLE26=This Time's The Next Time
TTITLE27=This Gun Don't Care
TTITLE28=You Can't Make A Heel Toe The Mark
EXTD=
EXTT0=
EXTT1=
EXTT2=
EXTT3=
EXTT4=
EXTT5=
EXTT6=
EXTT7=
EXTT8=
EXTT9=
EXTT10=
EXTT11=
EXTT12=
EXTT13=
EXTT14=
EXTT15=
EXTT16=
EXTT17=
EXTT18=
EXTT19=
EXTT20=
EXTT21=
EXTT22=
EXTT23=
EXTT24=
EXTT25=
EXTT26=
EXTT27=
EXTT28=
PLAYORDER=
